# Blender 4.1.1
# www.blender.org
o Plane
v -2.240033 0.000000 1.419149
v 2.240033 0.000000 1.419149
v -2.240033 0.000000 -1.419149
v 2.240033 0.000000 -1.419149
v -0.377556 0.000000 1.419149
v -0.276088 0.000000 1.419149
v -0.242357 0.000000 1.239640
v -0.023991 0.000000 1.236089
v -0.016889 0.000000 1.062107
v -0.043519 0.000000 0.859719
v -0.082577 0.000000 0.316466
v -0.238806 0.000000 0.263206
v -0.183771 0.000000 0.080347
v -0.105656 0.000000 -0.109614
v 0.036371 0.000000 -0.169975
v 0.313323 0.000000 -0.097186
v 0.842372 0.000000 0.012884
v 0.924038 0.000000 0.012884
v 0.991500 0.000000 -0.303125
v 1.105122 0.000000 -0.491311
v 1.142404 0.000000 -0.762937
v 1.140629 0.000000 -0.878333
v 0.895520 0.000000 -1.011230
v 0.556428 0.000000 -1.094533
v 0.285938 0.000000 -1.120994
v 0.179114 0.000000 -1.050431
v 0.086011 0.000000 -1.098453
v -0.038453 0.000000 -1.206257
v -0.213880 0.000000 -1.248398
v -0.267782 0.000000 -1.121974
v -0.160958 0.000000 -0.848544
v -0.025713 0.000000 -0.578054
v -0.054134 0.000000 -0.413409
v -0.159978 0.000000 -0.202701
v -0.367745 0.000000 -0.071377
v -0.613734 0.000000 -0.067456
v -0.773479 0.000000 -0.155659
v -1.161573 0.000000 -0.260523
v -1.285058 0.000000 0.233414
v -1.411482 0.000000 0.585247
v -1.297798 0.000000 0.627388
v -0.550031 0.000000 0.801835
v -0.459868 0.000000 0.790074
v -0.383425 0.000000 0.851816
vn -0.0000 1.0000 -0.0000
s 0
f 1//1 5//1 44//1 43//1 42//1 41//1 40//1 39//1 38//1 37//1 36//1 35//1 34//1 33//1 32//1 31//1 30//1 29//1 28//1 27//1 26//1 25//1 24//1 23//1 22//1 21//1 20//1 19//1 18//1 17//1 16//1 15//1 14//1 13//1 12//1 11//1 10//1 9//1 8//1 7//1 6//1 2//1 4//1 3//1
